<svg width="96" height="96" viewBox="0 0 96 96" fill="none" xmlns="http://www.w3.org/2000/svg">
<path d="M17.2333 77.1668C15.3139 77.1668 13.7125 76.5252 12.4292 75.2418C11.1458 73.9585 10.5028 72.3557 10.5 70.4335V25.5668C10.5 23.6474 11.1431 22.046 12.4292 20.7627C13.7153 19.4793 15.3153 18.8363 17.2292 18.8335H78.7708C80.6875 18.8335 82.2875 19.4766 83.5708 20.7627C84.8542 22.0488 85.4972 23.6502 85.5 25.5668V70.4377C85.5 72.3543 84.8569 73.9557 83.5708 75.2418C82.2847 76.5279 80.6847 77.1696 78.7708 77.1668H17.2333ZM48 48.4835L14.6667 26.6877V70.4377C14.6667 71.1849 14.9069 71.7988 15.3875 72.2793C15.8681 72.7599 16.4833 73.0002 17.2333 73.0002H78.7708C79.5181 73.0002 80.1319 72.7599 80.6125 72.2793C81.093 71.7988 81.3333 71.1835 81.3333 70.4335V26.6835L48 48.4835ZM48 43.8335L80.05 23.0002H15.95L48 43.8335ZM14.6667 26.6877V23.0002V70.4377C14.6667 71.1849 14.9069 71.7988 15.3875 72.2793C15.8681 72.7599 16.4833 73.0002 17.2333 73.0002H14.6667V26.6877Z" fill="#014D4E"/>
<path d="M14.6667 26.6877L48 48.4835L81.3333 26.6835V70.4335C81.3333 71.1835 81.0931 71.7988 80.6125 72.2793C80.1319 72.7599 79.5181 73.0002 78.7708 73.0002H17.2333M14.6667 26.6877V70.4377M14.6667 26.6877V23.0002V70.4377M14.6667 26.6877V73.0002H17.2333M14.6667 70.4377C14.6667 71.1849 14.9069 71.7988 15.3875 72.2793C15.8681 72.7599 16.4833 73.0002 17.2333 73.0002M17.2333 77.1668C15.3139 77.1668 13.7125 76.5252 12.4292 75.2418C11.1458 73.9585 10.5028 72.3557 10.5 70.4335V25.5668C10.5 23.6474 11.1431 22.046 12.4292 20.7627C13.7153 19.4793 15.3153 18.8363 17.2292 18.8335H78.7708C80.6875 18.8335 82.2875 19.4766 83.5708 20.7627C84.8542 22.0488 85.4972 23.6502 85.5 25.5668V70.4377C85.5 72.3543 84.8569 73.9557 83.5708 75.2418C82.2847 76.5279 80.6847 77.1696 78.7708 77.1668H17.2333ZM48 43.8335L80.05 23.0002H15.95L48 43.8335Z" stroke="#014D4E" stroke-width="0.5"/>
</svg>
