<svg width="96" height="96" viewBox="0 0 96 96" fill="none" xmlns="http://www.w3.org/2000/svg">
<path d="M23.3208 68.8333L16.2208 75.9333C15.1681 76.9861 13.9514 77.2278 12.5708 76.6583C11.1903 76.0889 10.5 75.0542 10.5 73.5542V17.2333C10.5 15.3139 11.1431 13.7125 12.4292 12.4292C13.7153 11.1458 15.3167 10.5028 17.2333 10.5H78.7708C80.6875 10.5 82.2889 11.1431 83.575 12.4292C84.8611 13.7153 85.5028 15.3167 85.5 17.2333V62.1042C85.5 64.0208 84.8583 65.6222 83.575 66.9083C82.2917 68.1944 80.6903 68.8361 78.7708 68.8333H23.3208ZM21.5417 64.6667H78.7708C79.4097 64.6667 79.9972 64.4 80.5333 63.8667C81.0694 63.3333 81.3361 62.7458 81.3333 62.1042V17.2292C81.3333 16.5903 81.0667 16.0028 80.5333 15.4667C80 14.9306 79.4125 14.6639 78.7708 14.6667H17.2292C16.5903 14.6667 16.0028 14.9333 15.4667 15.4667C14.9306 16 14.6639 16.5875 14.6667 17.2292V71.5208L21.5417 64.6667ZM31.3333 42.875C32.1944 42.875 32.9444 42.5556 33.5833 41.9167C34.2222 41.2778 34.5417 40.5278 34.5417 39.6667C34.5417 38.8056 34.2222 38.0556 33.5833 37.4167C32.9444 36.7778 32.1944 36.4583 31.3333 36.4583C30.4722 36.4583 29.7222 36.7778 29.0833 37.4167C28.4444 38.0556 28.125 38.8056 28.125 39.6667C28.125 40.5278 28.4444 41.2778 29.0833 41.9167C29.7222 42.5556 30.4722 42.875 31.3333 42.875ZM48 42.875C48.8611 42.875 49.6111 42.5556 50.25 41.9167C50.8889 41.2778 51.2083 40.5278 51.2083 39.6667C51.2083 38.8056 50.8889 38.0556 50.25 37.4167C49.6111 36.7778 48.8611 36.4583 48 36.4583C47.1389 36.4583 46.3889 36.7778 45.75 37.4167C45.1111 38.0556 44.7917 38.8056 44.7917 39.6667C44.7917 40.5278 45.1111 41.2778 45.75 41.9167C46.3889 42.5556 47.1389 42.875 48 42.875ZM64.6667 42.875C65.5278 42.875 66.2778 42.5556 66.9167 41.9167C67.5556 41.2778 67.875 40.5278 67.875 39.6667C67.875 38.8056 67.5556 38.0556 66.9167 37.4167C66.2778 36.7778 65.5278 36.4583 64.6667 36.4583C63.8056 36.4583 63.0556 36.7778 62.4167 37.4167C61.7778 38.0556 61.4583 38.8056 61.4583 39.6667C61.4583 40.5278 61.7778 41.2778 62.4167 41.9167C63.0556 42.5556 63.8056 42.875 64.6667 42.875Z" fill="#014D4E"/>
<path d="M14.6667 64.6667V14.6667M23.3208 68.8333L16.2208 75.9333C15.1681 76.9861 13.9514 77.2278 12.5708 76.6583C11.1903 76.0889 10.5 75.0542 10.5 73.5542V17.2333C10.5 15.3139 11.1431 13.7125 12.4292 12.4292C13.7153 11.1458 15.3167 10.5028 17.2333 10.5H78.7708C80.6875 10.5 82.2889 11.1431 83.575 12.4292C84.8611 13.7153 85.5028 15.3167 85.5 17.2333V62.1042C85.5 64.0208 84.8583 65.6222 83.575 66.9083C82.2917 68.1944 80.6903 68.8361 78.7708 68.8333H23.3208ZM21.5417 64.6667H78.7708C79.4097 64.6667 79.9972 64.4 80.5333 63.8667C81.0694 63.3333 81.3361 62.7458 81.3333 62.1042V17.2292C81.3333 16.5903 81.0667 16.0028 80.5333 15.4667C80 14.9306 79.4125 14.6639 78.7708 14.6667H17.2292C16.5903 14.6667 16.0028 14.9333 15.4667 15.4667C14.9306 16 14.6639 16.5875 14.6667 17.2292V71.5208L21.5417 64.6667ZM31.3333 42.875C32.1944 42.875 32.9444 42.5556 33.5833 41.9167C34.2222 41.2778 34.5417 40.5278 34.5417 39.6667C34.5417 38.8056 34.2222 38.0556 33.5833 37.4167C32.9444 36.7778 32.1944 36.4583 31.3333 36.4583C30.4722 36.4583 29.7222 36.7778 29.0833 37.4167C28.4444 38.0556 28.125 38.8056 28.125 39.6667C28.125 40.5278 28.4444 41.2778 29.0833 41.9167C29.7222 42.5556 30.4722 42.875 31.3333 42.875ZM48 42.875C48.8611 42.875 49.6111 42.5556 50.25 41.9167C50.8889 41.2778 51.2083 40.5278 51.2083 39.6667C51.2083 38.8056 50.8889 38.0556 50.25 37.4167C49.6111 36.7778 48.8611 36.4583 48 36.4583C47.1389 36.4583 46.3889 36.7778 45.75 37.4167C45.1111 38.0556 44.7917 38.8056 44.7917 39.6667C44.7917 40.5278 45.1111 41.2778 45.75 41.9167C46.3889 42.5556 47.1389 42.875 48 42.875ZM64.6667 42.875C65.5278 42.875 66.2778 42.5556 66.9167 41.9167C67.5556 41.2778 67.875 40.5278 67.875 39.6667C67.875 38.8056 67.5556 38.0556 66.9167 37.4167C66.2778 36.7778 65.5278 36.4583 64.6667 36.4583C63.8056 36.4583 63.0556 36.7778 62.4167 37.4167C61.7778 38.0556 61.4583 38.8056 61.4583 39.6667C61.4583 40.5278 61.7778 41.2778 62.4167 41.9167C63.0556 42.5556 63.8056 42.875 64.6667 42.875Z" stroke="#014D4E" stroke-width="0.5"/>
</svg>
