<svg width="24" height="24" viewBox="0 0 24 24" fill="none" xmlns="http://www.w3.org/2000/svg">
    <path
        d="M9.16667 5.9V9.13333C9.166 9.53603 9.04625 9.92954 8.8225 10.2643C8.59875 10.5992 8.28098 10.8603 7.90917 11.015C7.66322 11.1167 7.39946 11.1682 7.13333 11.1667H3.9C3.36217 11.1645 2.84712 10.9493 2.4676 10.5682C2.08808 10.1871 1.875 9.67117 1.875 9.13333V5.90833C1.875 5.3705 2.08808 4.85457 2.4676 4.47349C2.84712 4.0924 3.36217 3.8772 3.9 3.875H7.13333C7.67117 3.875 8.18709 4.08808 8.56818 4.4676C8.94926 4.84712 9.16446 5.36217 9.16667 5.9ZM18.125 5.90833V9.13333C18.1268 9.3996 18.0753 9.66354 17.9737 9.90967C17.8721 10.1558 17.7224 10.3792 17.5333 10.5667C17.3471 10.758 17.1242 10.9098 16.8779 11.0129C16.6316 11.116 16.367 11.1683 16.1 11.1667H12.8667C12.4649 11.1661 12.0722 11.0471 11.7378 10.8245C11.4034 10.6018 11.1421 10.2855 10.9867 9.915C10.8837 9.66736 10.8315 9.40153 10.8333 9.13333V5.90833C10.8327 5.64147 10.8854 5.37718 10.9884 5.13102C11.0915 4.88485 11.2428 4.6618 11.4333 4.475C11.6207 4.28517 11.8439 4.1344 12.0899 4.03141C12.3359 3.92842 12.5999 3.87526 12.8667 3.875H16.1C16.6378 3.8772 17.1529 4.0924 17.5324 4.47349C17.9119 4.85457 18.125 5.3705 18.125 5.90833ZM9.16667 14.875V18.1C9.16446 18.6378 8.94926 19.1529 8.56818 19.5324C8.18709 19.9119 7.67117 20.125 7.13333 20.125H3.9C3.363 20.1239 2.84804 19.9114 2.46667 19.5333C2.2776 19.3458 2.12787 19.1225 2.02627 18.8763C1.92467 18.6302 1.87324 18.3663 1.875 18.1V14.875C1.87324 14.6087 1.92467 14.3448 2.02627 14.0987C2.12787 13.8525 2.2776 13.6292 2.46667 13.4417C2.84635 13.059 3.361 12.8406 3.9 12.8333H7.13333C7.67269 12.8377 8.1886 13.0545 8.56921 13.4367C8.94983 13.8188 9.16449 14.3356 9.16667 14.875ZM18.125 16.4833C18.1234 17.2029 17.9086 17.9058 17.5078 18.5034C17.107 19.101 16.5382 19.5665 15.8731 19.841C15.208 20.1156 14.4765 20.1871 13.7708 20.0463C13.0652 19.9055 12.4171 19.5588 11.9083 19.05C11.3995 18.5412 11.0528 17.8931 10.9121 17.1875C10.7713 16.4819 10.8427 15.7503 11.1173 15.0852C11.3919 14.4202 11.8574 13.8513 12.4549 13.4505C13.0525 13.0498 13.7555 12.835 14.475 12.8333C15.197 12.8353 15.9024 13.0505 16.5027 13.4518C17.1029 13.8531 17.5713 14.4227 17.8492 15.0892C18.0325 15.5308 18.1258 16.005 18.125 16.4833Z"
        fill="#014D4E" />
</svg>